<svg width="20" height="20" viewBox="0 0 20 20" fill="none" xmlns="http://www.w3.org/2000/svg">
<rect width="20" height="20" rx="10" fill="#242526"/>
<path d="M13.01 12.29C13.0367 12.3367 13.0533 12.3867 13.06 12.44C13.0667 12.4867 13.0667 12.5333 13.06 12.58C13.0533 12.6733 13.0167 12.7567 12.95 12.83C12.9033 12.8833 12.8467 12.9333 12.78 12.98C12.7267 13.0133 12.6533 13.03 12.56 13.03C12.4867 13.03 12.42 13.0167 12.36 12.99C12.28 12.9567 12.21 12.9133 12.15 12.86C12.0767 12.82 12.0067 12.77 11.94 12.71L11.66 12.47C11.5467 12.5767 11.42 12.6667 11.28 12.74C11.1467 12.8133 11.0067 12.8733 10.86 12.92C10.6467 12.9867 10.4267 13.0233 10.2 13.03C9.98 13.0433 9.76 13.0233 9.54 12.97C9.32 12.9167 9.10667 12.8333 8.9 12.72C8.7 12.6067 8.51667 12.46 8.35 12.28C8.15 12.0733 7.98667 11.8367 7.86 11.57C7.73333 11.2967 7.63333 11.0133 7.56 10.72C7.48667 10.4267 7.44 10.13 7.42 9.83C7.4 9.53 7.4 9.24667 7.42 8.98C7.44 8.72667 7.48 8.45333 7.54 8.16C7.6 7.86 7.69 7.57333 7.81 7.3C7.93667 7.02667 8.09333 6.78333 8.28 6.57C8.47333 6.35667 8.70667 6.21 8.98 6.13C9.64 5.92333 10.2 5.88667 10.66 6.02C11.12 6.14667 11.4967 6.37667 11.79 6.71C12.0233 6.97667 12.2067 7.29 12.34 7.65C12.48 8.01 12.5733 8.38667 12.62 8.78C12.6733 9.17333 12.6867 9.57 12.66 9.97C12.6333 10.3633 12.5733 10.73 12.48 11.07L12.3 11.55C12.4 11.6433 12.4933 11.73 12.58 11.81C12.6733 11.8833 12.7333 11.9367 12.76 11.97C12.8067 12.0167 12.85 12.0667 12.89 12.12C12.9367 12.1667 12.9767 12.2233 13.01 12.29ZM9.13 11.25C9.33 11.51 9.57 11.6667 9.85 11.72C10.1367 11.7667 10.4033 11.7167 10.65 11.57C10.5567 11.4767 10.47 11.3933 10.39 11.32C10.31 11.2467 10.26 11.1967 10.24 11.17C10.14 11.07 10.0633 10.95 10.01 10.81C9.95667 10.7033 9.94 10.6033 9.96 10.51C9.98 10.4033 10.0233 10.3133 10.09 10.24C10.1233 10.2133 10.1533 10.19 10.18 10.17C10.2067 10.1433 10.2367 10.12 10.27 10.1C10.3033 10.08 10.34 10.0667 10.38 10.06C10.4267 10.0533 10.4733 10.05 10.52 10.05C10.5867 10.05 10.6533 10.0733 10.72 10.12C10.78 10.1533 10.85 10.1967 10.93 10.25C10.9633 10.2833 10.9967 10.3167 11.03 10.35C11.07 10.3767 11.1067 10.4067 11.14 10.44C11.1667 10.4667 11.1933 10.4933 11.22 10.52C11.2467 10.54 11.2767 10.5633 11.31 10.59C11.3567 10.37 11.39 10.1367 11.41 9.89C11.4367 9.64333 11.44 9.39667 11.42 9.15C11.4 8.89667 11.3533 8.65 11.28 8.41C11.2067 8.16333 11.1033 7.93333 10.97 7.72C10.81 7.46667 10.6067 7.29667 10.36 7.21C10.1133 7.11667 9.81333 7.15667 9.46 7.33C9.32 7.40333 9.2 7.51 9.1 7.65C9.00667 7.78333 8.92667 7.93667 8.86 8.11C8.79333 8.27667 8.74 8.45 8.7 8.63C8.66667 8.81 8.64667 8.98 8.64 9.14C8.63333 9.31333 8.63333 9.49667 8.64 9.69C8.65333 9.87667 8.67667 10.0667 8.71 10.26C8.75 10.4467 8.80333 10.6267 8.87 10.8C8.93667 10.9667 9.02333 11.1167 9.13 11.25Z" fill="#BC98EA"/>
</svg>